<svg xmlns="http://www.w3.org/2000/svg" width="16.644" height="16" viewBox="0 0 16.644 16">
  <g id="settings" transform="translate(-5 22.85) rotate(-90)">
    <g id="Group_759" data-name="Group 759" transform="translate(6.85 5)">
      <path id="Path_645" data-name="Path 645" d="M176.49,12.6V7.715a.714.714,0,1,0-1.429,0V12.6a3.628,3.628,0,0,0,0,7.114V22.93a.714.714,0,1,0,1.429,0V19.715a3.628,3.628,0,0,0,0-7.114Zm-.714,5.753a2.2,2.2,0,1,1,2.2-2.2A2.2,2.2,0,0,1,175.776,18.355Z" transform="translate(-163.401 -7)" fill="#1a1824"/>
      <path id="Path_646" data-name="Path 646" d="M11.19,7.013v-1.3a.715.715,0,1,0-1.429,0v1.3a3.628,3.628,0,0,0,0,7.114v6.8a.715.715,0,1,0,1.429,0V14.121a3.625,3.625,0,0,0,0-7.108Zm-.715,5.753a2.2,2.2,0,1,1,2.2-2.2A2.2,2.2,0,0,1,10.476,12.766Z" transform="translate(-6.85 -5)" fill="#1a1824"/>
    </g>
  </g>
</svg>
