<svg xmlns="http://www.w3.org/2000/svg" width="161.813" height="120.057" viewBox="0 0 161.813 120.057">
  <g id="image" transform="translate(-107 -209.911)">
    <path id="Path_1752" data-name="Path 1752" d="M189.241,47.979c-10.374-.36-20.253-3.7-29.688-7.351s-18.779-7.7-28.9-9.636c-6.512-1.245-13.961-1.421-19.207,2.06-5.05,3.356-6.682,9.132-7.559,14.5-.66,4.036-1.048,8.285.76,12.063,1.257,2.624,3.485,4.829,5.026,7.343,5.365,8.744,1.572,19.527-4.24,28.065-2.725,4.006-5.89,7.83-7.995,12.09s-3.077,9.148-1.236,13.5c1.824,4.314,6.172,7.549,10.883,9.826,9.567,4.626,20.837,5.949,31.834,6.7,24.336,1.66,48.8.941,73.2.222,9.03-.267,18.1-.537,26.982-1.929,4.933-.773,10.026-2,13.608-4.962a11.338,11.338,0,0,0,2.625-14.842c-5.11-7.908-19.234-9.872-22.81-18.359-1.965-4.672.053-9.875,2.911-14.209,6.129-9.294,16.4-17.448,16.942-28.071.372-7.3-4.566-14.6-12.2-18.057-8-3.618-19.1-3.164-25,2.827C209.085,45.923,198.4,48.3,189.241,47.979Z" transform="translate(11.774 191.821)" fill="#dc2342" opacity="0.1"/>
    <g id="bell" transform="translate(144.802 209.911)">
      <path id="Path_2033" data-name="Path 2033" d="M178.706,400a10.706,10.706,0,1,0,10.706,10.706A10.718,10.718,0,0,0,178.706,400Zm0,0" transform="translate(-135.881 -323.526)" fill="#f5af50"/>
      <path id="Path_2034" data-name="Path 2034" d="M183.295,420.089a10.7,10.7,0,0,1-5.587-19.835,10.705,10.705,0,1,0,6.585,19.786C183.965,420.071,183.632,420.089,183.295,420.089Zm0,0" transform="translate(-135.881 -323.731)" fill="#f4a63d"/>
      <path id="Path_2035" data-name="Path 2035" d="M184,7.647a7.647,7.647,0,1,1,7.647,7.647A7.648,7.648,0,0,1,184,7.647Zm7.647,3.059a3.059,3.059,0,1,0-3.059-3.059A3.059,3.059,0,0,0,191.647,10.706Zm0,0" transform="translate(-148.822)" fill="#f4dc50"/>
      <path id="Path_2036" data-name="Path 2036" d="M99.52,133.292c-.036-.015-3.609-1.528-7.135-6.378-3.287-4.52-7.206-12.94-7.206-27.384,0-9.407-2.6-16.662-7.739-21.563a22.351,22.351,0,0,0-30.407,0c-5.135,4.9-7.739,12.156-7.739,21.563,0,14.443-3.919,22.864-7.205,27.384-3.527,4.85-7.1,6.363-7.128,6.374a1.53,1.53,0,0,0,.568,2.95H98.944a1.53,1.53,0,0,0,.576-2.946Zm0,0" transform="translate(-19.411 -58.235)" fill="#f4dc50"/>
      <path id="Path_2037" data-name="Path 2037" d="M30.145,135a1.528,1.528,0,0,1,.934-1.709c.028-.012,3.6-1.525,7.128-6.375,3.287-4.52,7.205-12.939,7.205-27.384,0-9.407,2.6-16.662,7.739-21.563A21.571,21.571,0,0,1,65.3,72.208,23.075,23.075,0,0,0,62.236,72a21.988,21.988,0,0,0-15.2,5.968c-5.135,4.9-7.739,12.156-7.739,21.563,0,14.443-3.919,22.864-7.205,27.384-3.527,4.85-7.1,6.363-7.128,6.374a1.53,1.53,0,0,0,.568,2.95h6.118A1.53,1.53,0,0,1,30.145,135Zm0,0" transform="translate(-19.411 -58.235)" fill="#f2d83d"/>
      <path id="Path_2038" data-name="Path 2038" d="M81.063,384H4.588A4.593,4.593,0,0,0,0,388.588v4.588a4.593,4.593,0,0,0,4.588,4.588H81.063a4.593,4.593,0,0,0,4.588-4.588v-4.588A4.593,4.593,0,0,0,81.063,384Zm0,0" transform="translate(0 -310.585)" fill="#f6e477"/>
      <path id="Path_2039" data-name="Path 2039" d="M7.647,393.177v-4.588A4.593,4.593,0,0,1,12.236,384H4.588A4.593,4.593,0,0,0,0,388.588v4.588a4.593,4.593,0,0,0,4.588,4.588h7.647A4.593,4.593,0,0,1,7.647,393.177Zm0,0" transform="translate(0 -310.585)" fill="#f4dc50"/>
      <path id="Path_2040" data-name="Path 2040" d="M277.765,72a13.765,13.765,0,1,0,13.765,13.765A13.781,13.781,0,0,0,277.765,72Zm0,0" transform="translate(-213.527 -58.235)" fill="#34c47c"/>
      <path id="Path_2041" data-name="Path 2041" d="M282.354,100.756A13.758,13.758,0,0,1,272.591,77.3a13.762,13.762,0,1,0,14.938,22.446A13.7,13.7,0,0,1,282.354,100.756Zm0,0" transform="translate(-213.527 -62.519)" fill="#1a1824" opacity="0.2"/>
      <path id="Path_2042" data-name="Path 2042" d="M316.588,124.234a1.53,1.53,0,0,1-1.529-1.529V117.22l-.448.448a1.529,1.529,0,1,1-2.163-2.163l3.059-3.059a1.529,1.529,0,0,1,2.611,1.081V122.7A1.53,1.53,0,0,1,316.588,124.234Zm0,0" transform="translate(-252.35 -90.586)" fill="#f4f5f7"/>
    </g>
  </g>
</svg>
