<svg xmlns="http://www.w3.org/2000/svg" width="15.668" height="18.516" viewBox="0 0 15.668 18.516">
  <path id="Icon_ionic-md-notifications-outline" data-name="Icon ionic-md-notifications-outline" d="M13.5,6.6a6.435,6.435,0,0,1,1.064.2,4.536,4.536,0,0,1,3.457,4.444v5.68l.415.417.347.348H8.131l.347-.348.415-.417v-5.68A4.536,4.536,0,0,1,12.35,6.8a7.88,7.88,0,0,1,1.064-.2m.045-3.226a1.361,1.361,0,0,0-1.382,1.389v.648a6,6,0,0,0-4.608,5.833v5.092L5.625,18.188v.926H21.293v-.926L19.45,16.336V11.244a6,6,0,0,0-4.608-5.833V4.764a1.361,1.361,0,0,0-1.382-1.389ZM15.3,20.04H11.616a1.843,1.843,0,1,0,3.687,0Z" transform="translate(-5.625 -3.375)" fill="#707070"/>
</svg>
